<svg xmlns="http://www.w3.org/2000/svg" version="1.1" xmlns:xlink="http://www.w3.org/1999/xlink" xmlns:svgjs="http://svgjs.dev/svgjs" viewBox="0 0 17.62926910083414 6.826643768385999"><g transform="matrix(0.7700985553801049,0,0,0.7700985553801049,2.8112248490659972,2.534292963359316)"><g clip-path="url(#SvgjsClipPath120849)"><g clip-path="url(#b697c5cc7-c4c8-4719-b031-b2994a157d26b6577a89-c8ec-4db7-bf30-dc5b25fe1ae3)"><path d=" M 14.08480723966251 2.7004332484297118 C 14.107185982689561 2.712092538905191 14.132081059875361 2.7180898716887754 14.15731419937559 2.7179004915830447 C 14.17229419754916 2.717712063933062 14.18727419572273 2.715262504483296 14.201783124771346 2.7106837125887333 C 14.245196855327203 2.696966179670042 14.268298085214997 2.668720874937738 14.297542056492208 2.632938464206153 C 14.32684255606441 2.5970995251795728 14.360043507991243 2.55647452384345 14.416458746395858 2.535389469810463 C 14.431438744569428 2.5297931686059965 14.46652397299608 2.5166786041672484 14.508091112582115 2.515943736332318 C 14.537278555564328 2.5153030823223794 14.564374451631743 2.520918226291844 14.588568561889433 2.5325818978257306 C 14.63586390203492 2.555400486238553 14.670496904101615 2.5997375122793214 14.691487744309612 2.6643305106931567 L 14.97463797393759 3.5357895490949893 C 15.967745903167812 3.1879332644631875 16.646499983933033 2.253878560737328 16.67001575465079 1.2027537580776426 L 15.75348482237326 1.2027160725476465 C 15.749961225318597 1.2027160725476465 15.746626055913914 1.2028479719026335 15.74330972927423 1.2029798712576205 L 15.740012245399544 1.2030740850826114 C 15.738200758452354 1.2031920571120065 15.736391556405259 1.2033428239492643 15.734585529080064 1.2035263114425685 L 15.732965051290218 1.2036770535625536 C 15.730769363553694 1.2038736645981667 15.728577030081851 1.2041060896367288 15.726388926305845 1.204374235867488 L 15.722168146946249 1.2050337326424245 C 15.719412263576753 1.2054815869974245 15.716672231238098 1.2060220520917466 15.713952701407031 1.20665421043227 L 15.711427770897274 1.2072571789122122 C 15.708715020196992 1.2079468499804957 15.706036362289264 1.2087642807974073 15.70340075300804 1.2097067383619786 L 15.701422262683229 1.2103662351369155 C 15.699619619300716 1.2110784526457141 15.697846912803229 1.2118642268024027 15.696108602953736 1.2127215807616911 C 15.679753082935296 1.2206355420609352 15.661192959412066 1.2365388357194178 15.661192959412066 1.2903726153192803 C 15.661192959412066 1.2948760361538507 15.661324858767056 1.2991910293384386 15.661494443652039 1.3031856955180572 C 15.662756908906918 1.3321847108502898 15.678867472980382 1.357245588297898 15.699255344708437 1.3889768045548696 C 15.728650058105629 1.4347081952055054 15.761945223857452 1.486506956185562 15.761945223857452 1.565250871113047 L 15.761945223857452 1.567436631852839 C 15.76158691001531 1.6390860542720647 15.732557100450332 1.7076094336519485 15.681335875195144 1.7577108728046815 C 15.626821502957382 1.811609668603445 15.551845064502654 1.8395989519307177 15.475346768234804 1.834608196762341 C 15.471842013945139 1.8344009263473613 15.468318416890474 1.8340617565773931 15.464794819835811 1.8337225868074258 L 15.462514845271027 1.8335341591574437 C 15.324943818019158 1.8189687018138339 15.221252082234052 1.705874426294627 15.221252082234052 1.5704137887225549 L 15.221252082234052 1.5703949459575568 C 15.221252082234052 1.56732357526285 15.221308610529046 1.5642898900981395 15.22140282435404 1.5611996766384342 C 15.223569742328833 1.5016188537141202 15.246388330741654 1.453871287208677 15.268453208554547 1.4076876701980845 C 15.286542262952823 1.369851398081695 15.303594965276195 1.334163201175101 15.304725531176086 1.297419809428608 C 15.304782059471082 1.295365948043804 15.304819745001078 1.2933686149539942 15.304819745001078 1.291390124629183 C 15.304819745001078 1.2344661315696153 15.278232603588615 1.2046757201074587 15.225812031363617 1.2028479719026335 L 15.223720484448817 1.2027537580776426 C 15.223023302143885 1.202734915312644 15.22232611983895 1.2026783870176494 15.22161009476902 1.2026783870176494 L 14.216574695294934 1.2026595442526509 L 14.527141147995295 2.15851532708143 C 14.534904367174555 2.182370267569153 14.538823662294181 2.206055623171893 14.538823662294181 2.2288930543497125 C 14.538823662294181 2.3169076096563135 14.481447442874657 2.386173613789703 14.38533049861883 2.4141362770470343 C 14.364027291230624 2.420268894841324 14.342046070701981 2.423737282071297 14.319889575780074 2.424462112266049 L 14.318966280295163 2.424480955031047 C 14.316460192550402 2.4245940116210365 14.313351136325698 2.424669382681029 14.310242080100995 2.424707068211026 C 14.279208046148955 2.425046237980993 14.249662590631775 2.421126942861367 14.221096958894503 2.417339547096729 C 14.195075100431986 2.4138913211020574 14.170485292109333 2.4106315227573685 14.147101420746566 2.411121434647322 C 14.133931107260842 2.4112539394845003 14.120833342610139 2.4130906666357115 14.108134582730283 2.4165858364968003 C 14.045388175286272 2.4344864632450918 14.001578746665452 2.4945571980593595 14.001578746665452 2.5626737935278587 C 14.001578746665452 2.5786901437763303 14.004028306115218 2.5945934374348125 14.008852053954758 2.6099314481433487 C 14.021059819478218 2.6490363357893676 14.048412602181962 2.681627607266938 14.08480723966251 2.7004332484297118" fill="#00adef" transform="matrix(1,0,0,1,0,0)" fill-rule="nonzero"></path></g><g clip-path="url(#b697c5cc7-c4c8-4719-b031-b2994a157d26b6577a89-c8ec-4db7-bf30-dc5b25fe1ae3)"><path d=" M 13.858072248439148 0.82650142659355 C 13.858072248439148 0.8294220551682716 13.858034562909152 0.8323426837429928 13.85794034908416 0.8353198406127087 C 13.856056072584341 0.8963892419718806 13.832860628871554 0.9449093618422497 13.810418895758696 0.9918278466877724 C 13.792650168365391 1.0290046220292244 13.775880107516992 1.0641086932208743 13.774598799497115 1.099702676302477 C 13.774523857432659 1.1014477695533171 13.77448616332215 1.103194263340215 13.774485742907125 1.1049409649719768 C 13.774504585672123 1.1809338362097253 13.83363318223648 1.244547010843654 13.912037927393998 1.25296972679785 L 13.912678581403936 1.253026255092845 C 13.917106631178514 1.2534784814528013 13.921741951368071 1.2537422801627762 13.926810655152588 1.2538176512227694 L 13.927752793402497 1.2538553367527656 C 13.9684992431139 1.254188002735672 14.007694364809396 1.2382495123421065 14.036645132327106 1.2095748390069916 C 14.06593772801494 1.180936459315655 14.082543013742107 1.1417610140753889 14.082753378277705 1.100795556672373 L 14.082772221042703 1.0994388775925021 C 14.082772221042703 1.0547061534867714 14.063194588209573 1.024256245249677 14.038416352236936 0.9857227908283546 C 14.013374317554327 0.946774795577072 13.984997113467035 0.9026450399512835 13.982377969132285 0.8424612485470269 C 13.982133013187308 0.8369026328725575 13.981963428302326 0.8309106336031291 13.981963428302326 0.8246359928587281 C 13.981963428302326 0.77212120680874 13.993683628131206 0.7302337402177375 14.017764681798909 0.696561719165951 C 14.0534717214705 0.6467037629807091 14.111337852779979 0.6214167723531223 14.189780283467492 0.6214167723531223 L 15.107027240814954 0.6214167723531223 C 15.083266514152221 -0.4308385962064557 14.404682018271982 -1.3652889979972764 13.412045158166714 -1.7125988424441314 L 13.128574601533767 -0.8402730368523816 C 13.122771029914322 -0.8224289383990846 13.119831558574601 -0.8064879592106057 13.119831558574601 -0.7928834828819042 C 13.119831558574601 -0.7627915871797761 13.13273885259837 -0.7391816026370294 13.19571137322236 -0.7217332022486945 C 13.223674036479691 -0.7139699830694354 13.252484624161943 -0.7215447745987125 13.288964217198462 -0.7311357419827972 C 13.297801473982616 -0.7334534020775759 13.306827158416755 -0.7358087477023514 13.316078956030873 -0.7380321939721388 C 13.360623252486622 -0.7487160417261192 13.414720830796458 -0.7567807451453498 13.47810789225041 -0.7356014772873708 C 13.491599378775655 -0.7310888863575927 13.50471642448863 -0.7255257973256255 13.517338528976666 -0.7189633157939588 C 13.606728273233497 -0.6727040463118266 13.662769263419019 -0.5803665881771827 13.662540876052809 -0.47971672861179127 C 13.662540876052809 -0.4635873217733305 13.660901555497965 -0.44676073262993643 13.657641757153275 -0.4296703447765672 C 13.655418634250218 -0.41759888566870107 13.65237154145635 -0.4056938185753053 13.648521858894146 -0.39403867616496757 C 13.62501979410418 -0.3242547844392474 13.574446748817042 -0.26685084715978125 13.50818094518754 -0.23474194087017008 C 13.4436256323037 -0.2036513786231373 13.371589741715574 -0.1998828256234968 13.305300894451902 -0.22409577864618613 C 13.249337882407243 -0.24455902143423325 13.210974012870903 -0.28101977170575365 13.173891451354443 -0.31627458501738925 C 13.143479228647346 -0.34516054375963245 13.114800540320083 -0.37240718194703215 13.080186381018386 -0.3848622496108435 C 13.049755315546289 -0.39579105330980047 13.023375444548808 -0.3965259211447304 13.003873182775669 -0.3869914820556404 C 12.981657562842788 -0.3760815211216816 12.970031576838897 -0.35237732275394373 12.964190319689456 -0.3344201677106574 L 12.826280122667617 0.08995658557884245 L 12.653586181459097 0.6214167723531223 L 13.657943241393248 0.6214167723531223 C 13.665499190157526 0.6214167723531223 13.673036296156807 0.62175594212309 13.68034728897611 0.6223965961330289 C 13.788278646885809 0.6315918654521513 13.858072248439148 0.7117113022245052 13.858072248439148 0.82650142659355" fill="#ffb580" transform="matrix(1,0,0,1,0,0)" fill-rule="nonzero"></path></g><g clip-path="url(#b697c5cc7-c4c8-4719-b031-b2994a157d26b6577a89-c8ec-4db7-bf30-dc5b25fe1ae3)"><path d=" M 11.034352014103629 -0.42198249665730114 C 10.997495565767148 -0.4020091657592073 10.962711821580466 -0.3831475579960073 10.940194717407616 -0.35407317160378204 C 10.925177033704049 -0.33472165195062875 10.9162455630949 -0.31521939017749 10.914361286595081 -0.2976956187291624 C 10.914304758300085 -0.2972245496042074 10.914304758300085 -0.29669695218425773 10.914285915535087 -0.29616935476430806 L 10.914097487885106 -0.2927022860046389 C 10.914031657300711 -0.2920446991504768 10.913993937410687 -0.2913846010750655 10.913984431295116 -0.29072379567982765 C 10.913984431295116 -0.2730115965815181 10.921860707064365 -0.2562226929681204 10.937387145422884 -0.24080931119959126 C 10.941871723492456 -0.23634357589501742 10.946883898981977 -0.23208511100542406 10.95229177253646 -0.22816581588579798 L 11.765375924973865 0.3625925523378233 L 12.075169824309299 -0.5907571427461942 L 12.075169824309299 -0.592132664591063 L 12.076394604034181 -0.5945256957458345 C 12.080106628738829 -0.6057182981547663 12.084647735103395 -0.6166094163237269 12.090281721837858 -0.6277643332026623 L 12.090847004787804 -0.6289702701625474 C 12.091972062550624 -0.6314568552151331 12.093269075599787 -0.6338619959179496 12.094728614377432 -0.6361682063918603 L 12.095727280922338 -0.6378452124767003 C 12.115323756520468 -0.672195573068422 12.141892055167931 -0.6977652051709818 12.174697309029801 -0.7138569264794461 C 12.186756678628651 -0.7197735546888815 12.199626287122422 -0.7243335038184463 12.212929279211153 -0.7274048745131533 C 12.25257445676737 -0.7366001438322757 12.295667860318256 -0.7330011757176191 12.340984710138931 -0.7167021839941746 C 12.398473986148446 -0.6960316707911474 12.437440824164726 -0.6589867948046827 12.47512635416113 -0.6231478557781029 C 12.505010979448278 -0.5947706516908111 12.533218598650585 -0.56795739709837 12.566645663757395 -0.5557472853795353 C 12.60338905550389 -0.5423123939358175 12.643542987715058 -0.5445169974406071 12.679721096511603 -0.561965397828942 C 12.717909117620147 -0.5804986254190857 12.747059017060653 -0.613585865724868 12.760631929413883 -0.6538050344301772 C 12.76200745125875 -0.6579504427297816 12.76326991651363 -0.6624161780343555 12.764457010708517 -0.6674848818188717 C 12.778852883167144 -0.7281397423480831 12.754771829499441 -0.7906788793771147 12.706458980044053 -0.8265931894636873 C 12.693317445679066 -0.8363362575037614 12.678715507429594 -0.8439361339010263 12.66319599160818 -0.8491102936365383 C 12.620008374232302 -0.8635438516251608 12.58473471815567 -0.8542543684810474 12.540058522344932 -0.8425153258871677 C 12.534462221140467 -0.841045590217308 12.528790548876009 -0.83955701178245 12.52300582002156 -0.8380872761125904 C 12.481325623845539 -0.827591856008592 12.43593340296487 -0.81975326576934 12.38647114484459 -0.8335084842180274 C 12.253799236492252 -0.8702895614945172 12.225968472589908 -0.9530469853666192 12.225968472589908 -1.015981820460613 C 12.225968472589908 -1.0417775657431512 12.230811063194446 -1.069702543470486 12.240345502283535 -1.0990784141026828 L 12.523608788501502 -1.9707258801544971 C 11.515502018332711 -2.2733972143206116 10.41706303276254 -1.9167790439646455 9.779970305408341 -1.0799530076295079 L 10.522017233802524 -0.5408049727359614 C 10.550488651714806 -0.5201156167679357 10.574795818562487 -0.5114102593387666 10.594298080335626 -0.5149338563934303 C 10.620847536218092 -0.5197387614679717 10.64193259025108 -0.5475318398403193 10.655499381049784 -0.5680327681583628 C 10.66812403359858 -0.5871016463365429 10.671628787888245 -0.6101463479293437 10.673550749918062 -0.6321735402122415 C 10.674304460517991 -0.6410107969963982 10.674813215172943 -0.6501495380205261 10.675359655357889 -0.6596086060496233 C 10.678468711582592 -0.7144410521943904 10.682011151402255 -0.7765844911584596 10.729570290257715 -0.8409136908623204 C 10.737634993676947 -0.8518424945612774 10.746641835346088 -0.8622625436052829 10.756308173790165 -0.8719100392843623 C 10.796969503381078 -0.9125984977079533 10.849680152445952 -0.9390727780682702 10.906598067415821 -0.9473941558671586 C 10.977413374655532 -0.9581900591916566 11.049603861677967 -0.9401950247350819 11.10706624423169 -0.8974231430919275 C 11.124227137924859 -0.8847170434315649 11.139835482169586 -0.8700383696098428 11.15357018824725 -0.8536890855311012 C 11.19481492448481 -0.804692820245517 11.217495616889787 -0.7427411760205096 11.217635589241137 -0.6786963269928016 C 11.217635589241137 -0.6198315291384193 11.198623239357952 -0.5644338000437061 11.162614715446388 -0.5184951389780903 C 11.125852480934897 -0.4715766541325681 11.079348536919335 -0.4463650345649741 11.034352014103629 -0.42198249665730114" fill="#f47216" transform="matrix(1,0,0,1,0,0)" fill-rule="nonzero"></path></g><g clip-path="url(#b697c5cc7-c4c8-4719-b031-b2994a157d26b6577a89-c8ec-4db7-bf30-dc5b25fe1ae3)"><path d=" M 10.501459777189487 1.2921626779941098 C 10.501459777189487 1.2671960143714924 10.48318229514123 1.2413248980289617 10.469445919457542 1.2240460825256105 C 10.459591153363482 1.2116475431567937 10.446043205329774 1.2018116198277322 10.425579962541727 1.1922018096786495 C 10.41414240418782 1.1868316216541623 10.40166849375901 1.1819890310496242 10.388478558260267 1.1768637989701134 C 10.337282765760154 1.156946996367014 10.27928473509569 1.1343922066641665 10.232818476610124 1.0692904535953798 C 10.200089582753368 1.0236196025664623 10.182501148919396 0.9688377927268907 10.182527136829924 0.9126505481653286 C 10.182604379088886 0.8205458683699012 10.229534593751195 0.734807703126007 10.307077813468021 0.6851053180470545 C 10.36516645328003 0.6480561173218771 10.435078362609113 0.6342446132944899 10.50289182732935 0.646421121505736 C 10.573363768422624 0.6591965161745168 10.63386788683185 0.6984836811957673 10.673230422913093 0.7570281520451803 C 10.6773381456827 0.7631520506695957 10.681238598037329 0.7695020624739899 10.684762195091993 0.7759274453383769 C 10.708956305349684 0.8197557167241938 10.717322493008885 0.8650160382498744 10.725406039193114 0.9088066241056951 C 10.733018516252388 0.9500722794517571 10.740197609716702 0.9889825891730439 10.760886965684728 1.0194136546451393 C 10.77458565583842 1.039537727663219 10.790262836316924 1.054008971181838 10.8062415010354 1.0612445929411474 C 10.811234833759922 1.0635057247409316 10.816322380309437 1.0651073597657785 10.821391084093953 1.0659929697206942 C 10.845754779236628 1.0702325918452893 10.8691009650694 1.0578905807714671 10.88440129024794 1.0467921921875265 L 10.900775653031378 1.0349024074736615 L 11.697485442685343 0.45607150949390207 L 10.88440129024794 -0.13470570149471706 C 10.828984718388229 -0.17499153306087245 10.798459439091141 -0.23037041939058733 10.798459439091141 -0.29070495291482923 C 10.798459439091141 -0.2933994683095721 10.798629023976126 -0.29605629817431867 10.798798608861109 -0.2987131280390649 L 10.799024722041088 -0.3030092784586548 C 10.799081250336082 -0.3046485990134984 10.799137778631078 -0.3062690768033438 10.799288520751062 -0.3079083973581874 C 10.803113602045698 -0.3475158893844076 10.820260518194061 -0.38795246307054854 10.848863835461332 -0.4248842824670238 C 10.886304409512759 -0.473178289157415 10.933580906893246 -0.4988044495549693 10.979293454778883 -0.5235638427626064 C 11.015565777400422 -0.5432356894207289 11.049765395872159 -0.5617581274139611 11.071698374330065 -0.589777318966287 C 11.0915863730702 -0.6151332982064994 11.102311432874307 -0.6464717237269826 11.10212943980216 -0.6786963269928007 C 11.10212943980216 -0.7180588630740444 11.086433416558659 -0.757251814270304 11.059073721781271 -0.7861943013075419 C 11.052727183759723 -0.792910818048866 11.045804249282508 -0.7990582325436604 11.038384365813245 -0.8045659971807886 C 11.00551281869835 -0.8290166165711286 10.964226650438563 -0.8393025378664178 10.923726140799188 -0.8331316289180626 C 10.883218688254841 -0.8271563530836413 10.846780534114583 -0.8052364729817649 10.822521649993845 -0.7722506552088728 C 10.795482282221426 -0.7356768483473632 10.793353049776629 -0.6986131295959004 10.790903490326862 -0.6556893109299966 L 10.79073390544188 -0.653107852125243 C 10.78811476110713 -0.6068300212896595 10.785118761472415 -0.5544471345946587 10.751880124015587 -0.504231165874451 C 10.73729582390698 -0.4822416591215497 10.692996483396207 -0.41534984337793357 10.614836694183666 -0.40123661239428043 C 10.563150989793598 -0.3918906009551726 10.509072254248759 -0.40739819654869236 10.454126751514004 -0.44732601557988183 L 9.712645106069766 -0.986078352408466 C 9.417774676612908 -0.5606652470440653 9.262001538372774 -0.06312203726654841 9.262001538372774 0.45392343428410764 C 9.262001538372774 0.9662393718202147 9.42173165726253 1.4785741521213198 9.712042137589824 1.8985040128712443 L 10.454089065984007 1.3594125062726923 C 10.485518798001007 1.3365750750948713 10.501459777189487 1.313944914332031 10.501459777189487 1.2921626779941098" fill="#73d2f6" transform="matrix(1,0,0,1,0,0)" fill-rule="nonzero"></path></g><g clip-path="url(#b697c5cc7-c4c8-4719-b031-b2994a157d26b6577a89-c8ec-4db7-bf30-dc5b25fe1ae3)"><path d=" M 10.430328339321274 1.0691773970053904 C 10.453391883679073 1.0781653959095323 10.479564484261576 1.0883404890085615 10.504305034704215 1.1035466003621102 C 10.526596025697087 1.1172641332808009 10.544779293920351 1.133148584174285 10.55987234868391 1.1521232485274744 C 10.574004422432562 1.1699108186857765 10.616984769393461 1.224008396995614 10.616984769393461 1.2921626779941098 C 10.616984769393461 1.3530248089383015 10.58502743995651 1.4070847017181418 10.521998391037526 1.4528914634287704 L 9.780479060063293 1.991606114727358 C 10.418005171012451 2.8287713208324634 11.516029615752661 3.1859547741383762 12.523081191081552 2.8837545090972156 L 12.239591791683608 2.011221433090486 C 12.228700673514647 1.9777566824536799 12.214154058936035 1.9564266724757153 12.196328803247736 1.9478343716365358 C 12.18854674130348 1.944065818636895 12.179125358804377 1.9423134414920622 12.168328454460408 1.9425772402020376 C 12.149391475637216 1.9431802086819798 12.129568886859108 1.9498317047263451 12.116303580300373 1.9547873519208723 C 12.089132313172968 1.9649247594899044 12.070289548174765 1.9880071466127014 12.046415764922044 2.017213432359914 C 12.011632020735362 2.0597603957258537 11.972250641889122 2.107941345826256 11.8959939719414 2.132022399493958 C 11.827514446993538 2.15376292382516 11.753194681316208 2.1473209733330556 11.689477267561108 2.1141217727456665 C 11.625843700376677 2.081233459191001 11.578014844316769 2.0242513719174715 11.556654617088784 1.9558802322907682 C 11.548275922150784 1.9293455371671986 11.544011958736077 1.9016837894112812 11.54401112177499 1.8738576762535957 C 11.54401112177499 1.754413388929995 11.622302810342518 1.6486489489950886 11.734417262081818 1.6166727767931401 C 11.757518491969615 1.6100778090437695 11.781618388402315 1.6067991679340825 11.808092473224788 1.606648425814097 C 11.838429324871893 1.606384627104122 11.867522554029115 1.6102473939287532 11.895654802171432 1.6139594186333992 C 11.922166572523901 1.6174830156880626 11.947227449971509 1.6207993423277463 11.97112007598923 1.620215216612802 C 11.984617796390962 1.6199949570502479 11.998031014517782 1.6180380711195645 12.01102905225542 1.6143928022283582 C 12.05764605286097 1.6008448541946503 12.081274880168717 1.5758405050420368 12.081274880168717 1.5400769370754503 C 12.081274880168717 1.5293742465564717 12.07923986154891 1.517710575022585 12.075245195369291 1.505406249478759 L 11.84087888432166 0.7840486770526012 L 11.764810642023917 0.5499461647149431 L 10.952272929771462 1.1402711493436055 C 10.904468834971025 1.174998365235291 10.852330904221 1.188678212623986 10.801530809785849 1.1798221130748308 C 10.791638358161793 1.1781074214599945 10.781745906537736 1.1754882771252444 10.772136096388653 1.1720400511305737 C 10.731303824637552 1.1573992227269707 10.694353162476077 1.1270812138448643 10.665316461613848 1.0844023511239371 C 10.630966101022127 1.0339037409287568 10.621205548753059 0.9810309423438028 10.611765323488958 0.9299105209036809 C 10.604284745784673 0.8893420478625529 10.597218708910347 0.8510723921512049 10.577358434602242 0.8215269366340248 C 10.555538512734325 0.7890796953071215 10.521753435092549 0.7672597734392037 10.482221314126322 0.760099522739887 C 10.471898090945288 0.7582289681101655 10.461412022502248 0.757408264378922 10.45092348146431 0.757649963290121 C 10.42464458061773 0.7582641482124852 10.39892605843397 0.765371859603819 10.376061176126454 0.7783393192581463 C 10.371497882235262 0.7809548257733006 10.36706458802055 0.7837908763985986 10.362777026802721 0.7868374062723353 C 10.358462289104795 0.7899576815920877 10.354305461705573 0.7932906899454719 10.35032195913891 0.7968240717213824 C 10.317113747108133 0.8261646562344567 10.298082152043254 0.868337408528548 10.298052129033898 0.9126505481653282 C 10.298016353149706 0.9501371973313406 10.311733666168337 0.9863345448325898 10.336604426220235 1.0143826363906376 C 10.361552247077839 1.042401827942946 10.393415362689797 1.0548003673117623 10.430328339321274 1.0691773970053904" fill="#4caf7a" transform="matrix(1,0,0,1,0,0)" fill-rule="nonzero"></path></g></g><g><path d=" M 4.608501342773437 0.211669921875 Q 4.608501342773437 0.240234375 4.589824584960937 0.26513671875 Q 4.571147827148437 0.2900390625 4.542949584960937 0.3134765625 Q 4.514751342773437 0.3369140625 4.481792358398437 0.35888671875 Q 4.448833374023437 0.380859375 4.420635131835937 0.403564453125 Q 4.392436889648437 0.42626953125 4.373760131835937 0.44970703125 Q 4.355083374023437 0.47314453125 4.355083374023437 0.49951171875 Q 4.355083374023437 0.521484375 4.385845092773437 0.5419921875 Q 4.416606811523437 0.5625 4.474468139648437 0.5830078125 Q 4.532329467773437 0.603515625 4.614360717773437 0.6251220703125 Q 4.696391967773437 0.646728515625 4.798931030273437 0.6708984375 Q 4.850200561523437 0.684814453125 4.850200561523437 0.722900390625 Q 4.850200561523437 0.737548828125 4.843242553710937 0.75146484375 Q 4.836284545898437 0.765380859375 4.824565795898437 0.7760009765625 Q 4.812847045898437 0.78662109375 4.797832397460937 0.793212890625 Q 4.782817749023437 0.7998046875 4.767436889648437 0.7998046875 Q 4.730815795898437 0.7998046875 4.684307006835937 0.788818359375 Q 4.637798217773437 0.77783203125 4.587993530273437 0.76171875 Q 4.538188842773437 0.74560546875 4.488384155273437 0.7261962890625 Q 4.438579467773437 0.706787109375 4.395000366210937 0.690673828125 Q 4.351421264648437 0.674560546875 4.318096069335937 0.66357421875 Q 4.284770874023437 0.652587890625 4.267925170898437 0.652587890625 Q 4.254741577148437 0.652587890625 4.242656616210937 0.6646728515625 Q 4.230571655273437 0.6767578125 4.220683959960937 0.697998046875 Q 4.210796264648437 0.71923828125 4.204204467773437 0.7481689453125 Q 4.197612670898437 0.777099609375 4.194682983398437 0.8115234375 Q 4.191020874023437 0.850341796875 4.167217163085937 0.8690185546875 Q 4.143413452148437 0.8876953125 4.101665405273437 0.8876953125 Q 4.058452514648437 0.8876953125 4.051860717773437 0.847412109375 Q 4.040874389648437 0.785888671875 4.025127319335937 0.72216796875 Q 4.009380249023437 0.658447265625 3.9907034912109367 0.5947265625 Q 3.9720267333984367 0.531005859375 3.9504202880859367 0.46875 Q 3.9288138427734367 0.406494140625 3.9053763427734367 0.349365234375 Q 3.8995169677734367 0.3369140625 3.8969534912109367 0.3262939453125 Q 3.8943900146484367 0.315673828125 3.8943900146484367 0.3046875 Q 3.8943900146484367 0.295166015625 3.9002493896484367 0.2867431640625 Q 3.9061087646484367 0.2783203125 3.9163626708984367 0.271728515625 Q 3.9266165771484367 0.26513671875 3.9401663818359367 0.261474609375 Q 3.9537161865234367 0.2578125 3.9683646240234367 0.2578125 Q 3.9983939208984367 0.2578125 4.015972045898437 0.270263671875 Q 4.033550170898437 0.28271484375 4.051860717773437 0.3076171875 Q 4.060649780273437 0.3193359375 4.068706420898437 0.3387451171875 Q 4.076763061523437 0.358154296875 4.084087280273437 0.380126953125 Q 4.091411499023437 0.402099609375 4.098735717773437 0.4244384765625 Q 4.106059936523437 0.44677734375 4.113017944335937 0.4647216796875 Q 4.119975952148437 0.482666015625 4.126933959960937 0.4940185546875 Q 4.133891967773437 0.50537109375 4.140483764648437 0.50537109375 Q 4.146343139648437 0.50537109375 4.150371459960937 0.500244140625 Q 4.154399780273437 0.4951171875 4.160259155273437 0.48486328125 Q 4.198345092773437 0.40576171875 4.243755249023437 0.3402099609375 Q 4.289165405273437 0.274658203125 4.336772827148437 0.2281494140625 Q 4.384380249023437 0.181640625 4.432353881835937 0.156005859375 Q 4.480327514648437 0.13037109375 4.524272827148437 0.13037109375 Q 4.541850952148437 0.13037109375 4.557231811523437 0.1365966796875 Q 4.572612670898437 0.142822265625 4.583965209960937 0.15380859375 Q 4.595317749023437 0.164794921875 4.601909545898437 0.1798095703125 Q 4.608501342773437 0.19482421875 4.608501342773437 0.211669921875 M 4.785015014648437 0.661376953125 Q 4.785015014648437 0.64892578125 4.787944702148437 0.633544921875 Q 4.790874389648437 0.6181640625 4.790874389648437 0.599853515625 Q 4.790874389648437 0.58740234375 4.780254272460937 0.580810546875 Q 4.769634155273437 0.57421875 4.756450561523437 0.566162109375 Q 4.743266967773437 0.55810546875 4.732646850585937 0.545654296875 Q 4.722026733398437 0.533203125 4.722026733398437 0.509765625 Q 4.722026733398437 0.492919921875 4.731182006835937 0.47607421875 Q 4.740337280273437 0.459228515625 4.757915405273437 0.4453125 Q 4.801128295898437 0.4130859375 4.847637084960937 0.387451171875 Q 4.894145874023437 0.36181640625 4.940654663085937 0.34423828125 Q 4.987163452148437 0.32666015625 5.032573608398437 0.317138671875 Q 5.077983764648437 0.3076171875 5.119731811523437 0.3076171875 Q 5.190044311523437 0.3076171875 5.251933959960937 0.3336181640625 Q 5.313823608398437 0.359619140625 5.359599975585937 0.4046630859375 Q 5.405376342773437 0.44970703125 5.432109741210937 0.5101318359375 Q 5.458843139648437 0.570556640625 5.458843139648437 0.639404296875 Q 5.458843139648437 0.706787109375 5.430644897460937 0.7672119140625 Q 5.402446655273437 0.82763671875 5.354839233398437 0.873046875 Q 5.307231811523437 0.91845703125 5.243144897460937 0.9451904296875 Q 5.179057983398437 0.971923828125 5.108013061523437 0.971923828125 Q 5.038432983398437 0.971923828125 4.979106811523437 0.948486328125 Q 4.919780639648437 0.925048828125 4.876567749023437 0.8836669921875 Q 4.833354858398437 0.84228515625 4.809184936523437 0.7855224609375 Q 4.785015014648437 0.728759765625 4.785015014648437 0.661376953125 M 5.124126342773437 0.840087890625 Q 5.154888061523437 0.840087890625 5.187847045898437 0.82763671875 Q 5.220806030273437 0.815185546875 5.248271850585937 0.7913818359375 Q 5.275737670898437 0.767578125 5.293682006835937 0.733154296875 Q 5.311626342773437 0.69873046875 5.311626342773437 0.655517578125 Q 5.311626342773437 0.611572265625 5.295513061523437 0.573486328125 Q 5.279399780273437 0.535400390625 5.251201538085937 0.5072021484375 Q 5.223003295898437 0.47900390625 5.184551147460937 0.462890625 Q 5.146098999023437 0.44677734375 5.101421264648437 0.44677734375 Q 5.020122436523437 0.44677734375 4.976909545898437 0.4888916015625 Q 4.933696655273437 0.531005859375 4.933696655273437 0.6181640625 Q 4.933696655273437 0.665771484375 4.947978881835937 0.7064208984375 Q 4.962261108398437 0.7470703125 4.987895874023437 0.7767333984375 Q 5.013530639648437 0.806396484375 5.048320678710937 0.8232421875 Q 5.083110717773437 0.840087890625 5.124126342773437 0.840087890625 M 5.514507202148437 0.0703125 Q 5.514507202148437 0.0322265625 5.536479858398437 0.01611328125 Q 5.558452514648437 0 5.608989624023437 0 Q 5.626567749023437 0 5.639751342773437 0.003662109375 Q 5.652934936523437 0.00732421875 5.661723999023437 0.0157470703125 Q 5.670513061523437 0.024169921875 5.676006225585937 0.0384521484375 Q 5.681499389648437 0.052734375 5.685161499023437 0.07470703125 Q 5.694682983398437 0.139892578125 5.704570678710937 0.2113037109375 Q 5.714458374023437 0.28271484375 5.723613647460937 0.3533935546875 Q 5.732768920898437 0.424072265625 5.740825561523437 0.4910888671875 Q 5.748882202148437 0.55810546875 5.755107788085937 0.6156005859375 Q 5.761333374023437 0.673095703125 5.764629272460937 0.7174072265625 Q 5.767925170898437 0.76171875 5.767925170898437 0.787353515625 Q 5.767925170898437 0.813720703125 5.763164428710937 0.83203125 Q 5.758403686523437 0.850341796875 5.747051147460937 0.861328125 Q 5.735698608398437 0.872314453125 5.717754272460937 0.8770751953125 Q 5.699809936523437 0.8818359375 5.673442749023437 0.8818359375 Q 5.647807983398437 0.8818359375 5.632793334960937 0.86865234375 Q 5.617778686523437 0.85546875 5.617778686523437 0.828369140625 Q 5.617778686523437 0.800537109375 5.613384155273437 0.7540283203125 Q 5.608989624023437 0.70751953125 5.601665405273437 0.650390625 Q 5.594341186523437 0.59326171875 5.585185913085937 0.52880859375 Q 5.576030639648437 0.46435546875 5.566142944335937 0.4013671875 Q 5.556255249023437 0.33837890625 5.547099975585937 0.2801513671875 Q 5.537944702148437 0.221923828125 5.530620483398437 0.1768798828125 Q 5.523296264648437 0.1318359375 5.518901733398437 0.1029052734375 Q 5.514507202148437 0.073974609375 5.514507202148437 0.0703125 M 5.813335327148437 0.393310546875 Q 5.813335327148437 0.36474609375 5.838970092773437 0.3497314453125 Q 5.864604858398437 0.334716796875 5.912212280273437 0.334716796875 Q 5.923198608398437 0.334716796875 5.931987670898437 0.337646484375 Q 5.940776733398437 0.340576171875 5.947734741210937 0.3489990234375 Q 5.954692749023437 0.357421875 5.960552124023437 0.3720703125 Q 5.966411499023437 0.38671875 5.972270874023437 0.409423828125 Q 5.978130249023437 0.43505859375 5.983989624023437 0.43505859375 Q 5.989116577148437 0.43505859375 5.996440795898437 0.413818359375 Q 6.009624389648437 0.3720703125 6.031230834960937 0.3409423828125 Q 6.052837280273437 0.309814453125 6.079936889648437 0.2889404296875 Q 6.107036499023437 0.26806640625 6.138896850585937 0.2578125 Q 6.170757202148437 0.24755859375 6.205913452148437 0.24755859375 Q 6.276958374023437 0.24755859375 6.338481811523437 0.2742919921875 Q 6.400005249023437 0.301025390625 6.444682983398437 0.3482666015625 Q 6.489360717773437 0.3955078125 6.514995483398437 0.4595947265625 Q 6.540630249023437 0.523681640625 6.540630249023437 0.598388671875 Q 6.540630249023437 0.677490234375 6.513164428710937 0.744873046875 Q 6.485698608398437 0.812255859375 6.436626342773437 0.8609619140625 Q 6.387554077148437 0.90966796875 6.319805053710937 0.9371337890625 Q 6.252056030273437 0.964599609375 6.171489624023437 0.964599609375 L 6.134136108398437 0.963134765625 Q 6.101177124023437 0.963134765625 6.101177124023437 1.00048828125 L 6.138530639648437 1.336669921875 Q 6.137798217773437 1.34912109375 6.130107788085937 1.3597412109375 Q 6.122417358398437 1.370361328125 6.109599975585937 1.37841796875 Q 6.096782592773437 1.386474609375 6.079570678710937 1.390869140625 Q 6.062358764648437 1.395263671875 6.044048217773437 1.395263671875 Q 5.991313842773437 1.395263671875 5.986919311523437 1.36083984375 Q 5.971538452148437 1.2275390625 5.952861694335937 1.107421875 Q 5.934184936523437 0.9873046875 5.914775756835937 0.8836669921875 Q 5.895366577148437 0.780029296875 5.877056030273437 0.695068359375 Q 5.858745483398437 0.610107421875 5.844463256835937 0.547119140625 Q 5.830181030273437 0.484130859375 5.821758178710937 0.444580078125 Q 5.813335327148437 0.405029296875 5.813335327148437 0.393310546875 M 6.051372436523437 0.586669921875 Q 6.051372436523437 0.63427734375 6.055034545898437 0.6807861328125 Q 6.058696655273437 0.727294921875 6.066753295898437 0.781494140625 Q 6.071147827148437 0.814453125 6.102641967773437 0.81884765625 Q 6.121684936523437 0.8232421875 6.145488647460937 0.8272705078125 Q 6.169292358398437 0.831298828125 6.185405639648437 0.831298828125 Q 6.232280639648437 0.831298828125 6.270366577148437 0.8173828125 Q 6.308452514648437 0.803466796875 6.335552124023437 0.7774658203125 Q 6.362651733398437 0.75146484375 6.377300170898437 0.715576171875 Q 6.391948608398437 0.6796875 6.391948608398437 0.6357421875 Q 6.391948608398437 0.582275390625 6.377300170898437 0.5357666015625 Q 6.362651733398437 0.4892578125 6.337383178710937 0.454833984375 Q 6.312114624023437 0.42041015625 6.278057006835937 0.400634765625 Q 6.243999389648437 0.380859375 6.204448608398437 0.380859375 Q 6.170024780273437 0.380859375 6.141826538085937 0.3958740234375 Q 6.113628295898437 0.410888671875 6.093486694335937 0.4376220703125 Q 6.073345092773437 0.46435546875 6.062358764648437 0.50244140625 Q 6.051372436523437 0.54052734375 6.051372436523437 0.586669921875 M 6.732524780273437 0.157470703125 Q 6.711284545898437 0.157470703125 6.692607788085937 0.1512451171875 Q 6.673931030273437 0.14501953125 6.660381225585937 0.1336669921875 Q 6.646831420898437 0.122314453125 6.638774780273437 0.10693359375 Q 6.630718139648437 0.091552734375 6.630718139648437 0.0732421875 Q 6.630718139648437 0.04248046875 6.655254272460937 0.0234375 Q 6.679790405273437 0.00439453125 6.720806030273437 0.00439453125 Q 6.739848999023437 0.00439453125 6.757427124023437 0.0113525390625 Q 6.775005249023437 0.018310546875 6.788555053710937 0.030029296875 Q 6.802104858398437 0.041748046875 6.810161499023437 0.0574951171875 Q 6.818218139648437 0.0732421875 6.818218139648437 0.090087890625 Q 6.818218139648437 0.12158203125 6.795146850585937 0.1395263671875 Q 6.772075561523437 0.157470703125 6.732524780273437 0.157470703125 M 6.632182983398437 0.380859375 Q 6.632182983398437 0.355224609375 6.654521850585937 0.3387451171875 Q 6.676860717773437 0.322265625 6.713481811523437 0.322265625 Q 6.779399780273437 0.322265625 6.783794311523437 0.36767578125 Q 6.786723999023437 0.399169921875 6.790019897460937 0.438720703125 Q 6.793315795898437 0.478271484375 6.796611694335937 0.5225830078125 Q 6.799907592773437 0.56689453125 6.802471069335937 0.6141357421875 Q 6.805034545898437 0.661376953125 6.807231811523437 0.7071533203125 Q 6.809429077148437 0.7529296875 6.810893920898437 0.79541015625 Q 6.812358764648437 0.837890625 6.812358764648437 0.873046875 Q 6.812358764648437 0.90966796875 6.786357788085937 0.927978515625 Q 6.760356811523437 0.9462890625 6.710552124023437 0.9462890625 Q 6.687847045898437 0.9462890625 6.675029663085937 0.9356689453125 Q 6.662212280273437 0.925048828125 6.662212280273437 0.904541015625 Q 6.662212280273437 0.803466796875 6.657451538085937 0.7152099609375 Q 6.652690795898437 0.626953125 6.647197631835937 0.55810546875 Q 6.641704467773437 0.4892578125 6.636943725585937 0.4434814453125 Q 6.632182983398437 0.397705078125 6.632182983398437 0.380859375 M 6.960307983398437 0.3134765625 Q 6.960307983398437 0.302490234375 6.969829467773437 0.2918701171875 Q 6.979350952148437 0.28125 6.994731811523437 0.2728271484375 Q 7.010112670898437 0.264404296875 7.029521850585937 0.2589111328125 Q 7.048931030273437 0.25341796875 7.068706420898437 0.25341796875 Q 7.079692749023437 0.25341796875 7.087383178710937 0.25927734375 Q 7.095073608398437 0.26513671875 7.100932983398437 0.2816162109375 Q 7.106792358398437 0.298095703125 7.111553100585937 0.3277587890625 Q 7.116313842773437 0.357421875 7.120708374023437 0.405029296875 Q 7.123638061523437 0.419677734375 7.126201538085937 0.4273681640625 Q 7.128765014648437 0.43505859375 7.133159545898437 0.43505859375 Q 7.139751342773437 0.43505859375 7.146343139648437 0.412353515625 Q 7.199809936523437 0.2578125 7.300884155273437 0.2578125 Q 7.347759155273437 0.2578125 7.386211303710937 0.287109375 Q 7.424663452148437 0.31640625 7.457988647460937 0.3826904296875 Q 7.491313842773437 0.448974609375 7.521343139648437 0.5570068359375 Q 7.551372436523437 0.6650390625 7.581401733398437 0.8232421875 Q 7.582866577148437 0.831298828125 7.583598999023437 0.837890625 Q 7.584331420898437 0.844482421875 7.584331420898437 0.850341796875 Q 7.584331420898437 0.8671875 7.576640991210937 0.8792724609375 Q 7.568950561523437 0.891357421875 7.556499389648437 0.8990478515625 Q 7.544048217773437 0.90673828125 7.528667358398437 0.9107666015625 Q 7.513286499023437 0.914794921875 7.497905639648437 0.914794921875 Q 7.467143920898437 0.914794921875 7.453594116210937 0.908203125 Q 7.440044311523437 0.901611328125 7.436382202148437 0.88330078125 Q 7.415141967773437 0.77197265625 7.395000366210937 0.685546875 Q 7.374858764648437 0.59912109375 7.355449584960937 0.5401611328125 Q 7.336040405273437 0.481201171875 7.316997436523437 0.450439453125 Q 7.297954467773437 0.419677734375 7.278911499023437 0.419677734375 Q 7.259868530273437 0.419677734375 7.243389038085937 0.4434814453125 Q 7.226909545898437 0.46728515625 7.211528686523437 0.517822265625 Q 7.196147827148437 0.568359375 7.181865600585937 0.64599609375 Q 7.167583374023437 0.7236328125 7.154399780273437 0.831298828125 Q 7.150737670898437 0.860595703125 7.125102905273437 0.878173828125 Q 7.099468139648437 0.895751953125 7.059917358398437 0.895751953125 Q 7.033550170898437 0.895751953125 7.019634155273437 0.884765625 Q 7.005718139648437 0.873779296875 7.004253295898437 0.854736328125 Q 6.997661499023437 0.702392578125 6.989971069335937 0.6038818359375 Q 6.982280639648437 0.50537109375 6.975688842773437 0.4456787109375 Q 6.969097045898437 0.385986328125 6.964702514648437 0.356689453125 Q 6.960307983398437 0.327392578125 6.960307983398437 0.3134765625 M 8.047954467773437 0.333251953125 Q 8.083110717773437 0.333251953125 8.114604858398437 0.3387451171875 Q 8.146098999023437 0.34423828125 8.171733764648437 0.3504638671875 Q 8.197368530273437 0.356689453125 8.215679077148437 0.3621826171875 Q 8.233989624023437 0.36767578125 8.242046264648437 0.36767578125 Q 8.248638061523437 0.36767578125 8.254497436523437 0.3607177734375 Q 8.260356811523437 0.353759765625 8.269145874023437 0.345703125 Q 8.277934936523437 0.337646484375 8.292583374023437 0.3306884765625 Q 8.307231811523437 0.32373046875 8.331401733398437 0.32373046875 Q 8.359233764648437 0.32373046875 8.375347045898437 0.3380126953125 Q 8.391460327148437 0.352294921875 8.391460327148437 0.37353515625 Q 8.391460327148437 0.6416015625 8.373149780273437 0.8287353515625 Q 8.354839233398437 1.015869140625 8.313823608398437 1.133056640625 Q 8.272807983398437 1.250244140625 8.207622436523437 1.302978515625 Q 8.142436889648437 1.355712890625 8.049419311523437 1.355712890625 Q 8.006938842773437 1.355712890625 7.961162475585937 1.336669921875 Q 7.915386108398437 1.317626953125 7.877300170898437 1.2879638671875 Q 7.839214233398437 1.25830078125 7.814678100585937 1.222412109375 Q 7.790141967773437 1.1865234375 7.790141967773437 1.153564453125 Q 7.790141967773437 1.142578125 7.801860717773437 1.1279296875 Q 7.813579467773437 1.11328125 7.830425170898437 1.099365234375 Q 7.847270874023437 1.08544921875 7.865581420898437 1.075927734375 Q 7.883891967773437 1.06640625 7.897075561523437 1.06640625 Q 7.910991577148437 1.06640625 7.920513061523437 1.0777587890625 Q 7.930034545898437 1.089111328125 7.938457397460937 1.10595703125 Q 7.946880249023437 1.122802734375 7.955669311523437 1.1429443359375 Q 7.964458374023437 1.1630859375 7.977641967773437 1.179931640625 Q 7.990825561523437 1.19677734375 8.009868530273437 1.2081298828125 Q 8.028911499023437 1.219482421875 8.057475952148437 1.219482421875 Q 8.217143920898437 1.219482421875 8.244975952148437 0.731689453125 Q 8.244975952148437 0.709716796875 8.232524780273437 0.709716796875 Q 8.222270874023437 0.709716796875 8.216411499023437 0.719970703125 Q 8.147563842773437 0.81298828125 8.055644897460937 0.8594970703125 Q 7.963725952148437 0.906005859375 7.851665405273437 0.906005859375 Q 7.799663452148437 0.906005859375 7.755718139648437 0.8902587890625 Q 7.711772827148437 0.87451171875 7.679912475585937 0.8463134765625 Q 7.648052124023437 0.818115234375 7.630473999023437 0.7789306640625 Q 7.612895874023437 0.73974609375 7.612895874023437 0.69287109375 Q 7.612895874023437 0.646728515625 7.629375366210937 0.6016845703125 Q 7.645854858398437 0.556640625 7.675517944335937 0.5167236328125 Q 7.705181030273437 0.476806640625 7.746196655273437 0.443115234375 Q 7.787212280273437 0.409423828125 7.835552124023437 0.3848876953125 Q 7.883891967773437 0.3603515625 7.937724975585937 0.3468017578125 Q 7.991557983398437 0.333251953125 8.047954467773437 0.333251953125 M 7.874370483398437 0.771240234375 Q 7.974712280273437 0.771240234375 8.058208374023437 0.7078857421875 Q 8.141704467773437 0.64453125 8.201030639648437 0.523681640625 Q 8.202495483398437 0.519287109375 8.203227905273437 0.5167236328125 Q 8.203960327148437 0.51416015625 8.203960327148437 0.51123046875 Q 8.203960327148437 0.50390625 8.188579467773437 0.495849609375 Q 8.173198608398437 0.48779296875 8.148296264648437 0.48193359375 Q 8.123393920898437 0.47607421875 8.091533569335937 0.4720458984375 Q 8.059673217773437 0.468017578125 8.027446655273437 0.468017578125 Q 7.975444702148437 0.468017578125 7.927104858398437 0.485595703125 Q 7.878765014648437 0.503173828125 7.841411499023437 0.532470703125 Q 7.804057983398437 0.561767578125 7.781352905273437 0.59912109375 Q 7.758647827148437 0.636474609375 7.758647827148437 0.6767578125 Q 7.758647827148437 0.719970703125 7.790508178710937 0.74560546875 Q 7.822368530273437 0.771240234375 7.874370483398437 0.771240234375 M 8.882915405273437 0.220458984375 Q 8.882915405273437 0.207275390625 8.889507202148437 0.1959228515625 Q 8.896098999023437 0.1845703125 8.907817749023437 0.1761474609375 Q 8.919536499023437 0.167724609375 8.935283569335937 0.16259765625 Q 8.951030639648437 0.157470703125 8.968608764648437 0.157470703125 Q 9.003032592773437 0.157470703125 9.019145874023437 0.16845703125 Q 9.035259155273437 0.179443359375 9.038921264648437 0.202880859375 Q 9.051372436523437 0.30029296875 9.059795288085937 0.3870849609375 Q 9.068218139648437 0.473876953125 9.073345092773437 0.5526123046875 Q 9.078472045898437 0.63134765625 9.080669311523437 0.7034912109375 Q 9.082866577148437 0.775634765625 9.082866577148437 0.843017578125 Q 9.082866577148437 0.879638671875 9.056865600585937 0.89794921875 Q 9.030864624023437 0.916259765625 8.981059936523437 0.916259765625 Q 8.958354858398437 0.916259765625 8.945537475585937 0.9056396484375 Q 8.932720092773437 0.89501953125 8.932720092773437 0.87451171875 Q 8.932720092773437 0.74853515625 8.925029663085937 0.6383056640625 Q 8.917339233398437 0.528076171875 8.907817749023437 0.4423828125 Q 8.898296264648437 0.356689453125 8.890605834960937 0.2991943359375 Q 8.882915405273437 0.24169921875 8.882915405273437 0.220458984375 M 9.357524780273437 0.2958984375 Q 9.351665405273437 0.2958984375 9.335185913085937 0.2984619140625 Q 9.318706420898437 0.301025390625 9.296733764648437 0.3046875 Q 9.274761108398437 0.308349609375 9.250591186523437 0.3131103515625 Q 9.226421264648437 0.31787109375 9.205181030273437 0.321533203125 Q 9.183940795898437 0.3251953125 9.168193725585937 0.3277587890625 Q 9.152446655273437 0.330322265625 9.147319702148437 0.330322265625 Q 9.098247436523437 0.330322265625 9.098247436523437 0.279052734375 Q 9.098247436523437 0.26513671875 9.100810913085937 0.2515869140625 Q 9.103374389648437 0.238037109375 9.109966186523437 0.2266845703125 Q 9.116557983398437 0.21533203125 9.127544311523437 0.207275390625 Q 9.138530639648437 0.19921875 9.155376342773437 0.1962890625 Q 9.241069702148437 0.18310546875 9.326030639648437 0.16845703125 Q 9.410991577148437 0.15380859375 9.497417358398437 0.1376953125 Q 9.516460327148437 0.134033203125 9.531841186523437 0.1307373046875 Q 9.547222045898437 0.12744140625 9.566265014648437 0.12158203125 Q 9.586772827148437 0.11572265625 9.610942749023437 0.1102294921875 Q 9.635112670898437 0.104736328125 9.659648803710937 0.100341796875 Q 9.684184936523437 0.095947265625 9.707256225585937 0.093017578125 Q 9.730327514648437 0.090087890625 9.749370483398437 0.090087890625 Q 9.772807983398437 0.090087890625 9.784892944335937 0.1051025390625 Q 9.796977905273437 0.1201171875 9.796977905273437 0.147216796875 Q 9.796977905273437 0.1611328125 9.794780639648437 0.1739501953125 Q 9.792583374023437 0.186767578125 9.786723999023437 0.197021484375 Q 9.780864624023437 0.207275390625 9.770610717773437 0.2138671875 Q 9.760356811523437 0.220458984375 9.744243530273437 0.221923828125 Q 9.702495483398437 0.227783203125 9.654888061523437 0.2362060546875 Q 9.607280639648437 0.24462890625 9.572124389648437 0.2548828125 Q 9.557475952148437 0.25927734375 9.550151733398437 0.2691650390625 Q 9.542827514648437 0.279052734375 9.540630249023437 0.293701171875 Q 9.538432983398437 0.3076171875 9.538066772460937 0.3218994140625 Q 9.537700561523437 0.336181640625 9.537700561523437 0.349365234375 Q 9.537700561523437 0.380126953125 9.540264038085937 0.410888671875 Q 9.542827514648437 0.441650390625 9.545024780273437 0.472412109375 Q 9.551616577148437 0.577880859375 9.565166381835937 0.68115234375 Q 9.578716186523437 0.784423828125 9.594829467773437 0.889892578125 Q 9.596294311523437 0.8935546875 9.596294311523437 0.897216796875 Q 9.596294311523437 0.90087890625 9.596294311523437 0.904541015625 Q 9.596294311523437 0.94482421875 9.550884155273437 0.961669921875 L 9.517925170898437 0.971923828125 Q 9.504741577148437 0.976318359375 9.492290405273437 0.976318359375 Q 9.473247436523437 0.976318359375 9.461528686523437 0.9642333984375 Q 9.449809936523437 0.9521484375 9.446147827148437 0.9287109375 Q 9.425640014648437 0.802734375 9.410259155273437 0.6778564453125 Q 9.394878295898437 0.552978515625 9.390483764648437 0.42626953125 Q 9.389018920898437 0.40576171875 9.388286499023437 0.381591796875 Q 9.387554077148437 0.357421875 9.387554077148437 0.331787109375 Q 9.387554077148437 0.2958984375 9.357524780273437 0.2958984375" fill="#f9f7e9" fill-rule="nonzero"></path></g><g><path d=" M 0.40800000000000003 1.7728998046874997 L 0.0075 1.7728998046874997 L 0.0075 1.8193998046874997 L 0.1785 1.8193998046874997 L 0.1785 2.2828998046874998 L 0.23850000000000002 2.2828998046874998 L 0.23850000000000002 1.8193998046874997 L 0.41475 1.8193998046874997 L 0.40800000000000003 1.7728998046874997 M 0.8006162109374999 2.2828998046874998 L 0.7931162109375 2.2356498046874997 L 0.5523662109374999 2.2356498046874997 L 0.5523662109374999 2.0443998046874996 L 0.7353662109374999 2.0443998046874996 L 0.7286162109375 2.0001498046874997 L 0.5523662109374999 2.0001498046874997 L 0.5523662109374999 1.8171498046874999 L 0.7781162109374999 1.8171498046874999 L 0.7713662109374999 1.7728998046874997 L 0.4931162109374999 1.7728998046874997 L 0.4931162109374999 2.2828998046874998 L 0.8006162109374999 2.2828998046874998 M 1.1557489013671873 1.7702748046874999 Q 1.1167489013671874 1.7623998046874998 1.0889989013671872 1.7623998046874998 Q 1.0169989013671874 1.7623998046874998 0.9622489013671873 1.7976498046874998 Q 0.9074989013671874 1.8328998046874998 0.8782489013671874 1.8940248046874997 Q 0.8489989013671874 1.9551498046874998 0.8489989013671874 2.0308998046874995 Q 0.8489989013671874 2.1028998046874996 0.8759989013671874 2.1628998046874996 Q 0.9029989013671874 2.2228998046874997 0.9562489013671873 2.2581498046874997 Q 1.0094989013671873 2.2933998046874997 1.0844989013671873 2.2933998046874997 Q 1.1167489013671874 2.2933998046874997 1.1553739013671873 2.2847748046875 Q 1.1939989013671874 2.2761498046875 1.2172489013671874 2.2641498046875 L 1.1947489013671873 2.2191498046874996 Q 1.1714989013671873 2.2296498046875 1.1448739013671874 2.2356498046874997 Q 1.1182489013671875 2.2416498046875 1.0822489013671874 2.2416498046875 Q 1.0297489013671874 2.2416498046875 0.9907489013671874 2.2135248046875 Q 0.9517489013671874 2.1853998046874996 0.9314989013671874 2.1370248046874996 Q 0.9112489013671874 2.0886498046875 0.9112489013671874 2.0301498046874995 Q 0.9112489013671874 1.9678998046874998 0.9344989013671874 1.9183998046874997 Q 0.9577489013671874 1.8688998046874996 0.9986239013671874 1.8411498046874997 Q 1.0394989013671874 1.8133998046874997 1.0889989013671872 1.8133998046874997 Q 1.1242489013671872 1.8133998046874997 1.1459989013671874 1.8182748046874997 Q 1.1677489013671873 1.8231498046874997 1.1977489013671874 1.8343998046874996 L 1.2164989013671874 1.7916498046874998 Q 1.1947489013671873 1.7781498046874997 1.1557489013671873 1.7702748046874999 M 1.6631290283203122 2.2828998046874998 L 1.6631290283203122 1.7728998046874997 L 1.6038790283203122 1.7728998046874997 L 1.6038790283203122 2.0016498046874998 L 1.3646290283203122 2.0016498046874998 L 1.3646290283203122 1.7691498046874998 L 1.3053790283203122 1.7728998046874997 L 1.3053790283203122 2.2828998046874998 L 1.3646290283203122 2.2828998046874998 L 1.3646290283203122 2.0496498046875 L 1.6038790283203122 2.0496498046875 L 1.6038790283203122 2.2828998046874998 L 1.6631290283203122 2.2828998046874998 M 2.0141260986328122 2.2821498046874997 Q 2.057626098632812 2.2926498046874997 2.0906260986328125 2.2926498046874997 Q 2.1461260986328123 2.2926498046874997 2.187001098632812 2.2753998046875 Q 2.2278760986328123 2.2581498046874997 2.2492510986328123 2.2281498046875 Q 2.270626098632812 2.1981498046874997 2.270626098632812 2.1591498046875 Q 2.270626098632812 2.1231498046875 2.2556260986328125 2.0972748046875 Q 2.2406260986328124 2.0713998046874997 2.211751098632812 2.0511498046875 Q 2.1828760986328124 2.0308998046874995 2.1356260986328124 2.0091498046874996 Q 2.083126098632812 1.9851498046874998 2.056126098632812 1.9693998046874999 Q 2.0291260986328123 1.9536498046874997 2.0145010986328122 1.9345248046874999 Q 1.9998760986328123 1.9153998046874998 1.9998760986328123 1.8883998046874997 Q 1.9998760986328123 1.8523998046874999 2.0295010986328124 1.8321498046874998 Q 2.059126098632812 1.8118998046874997 2.1086260986328123 1.8118998046874997 Q 2.141626098632812 1.8118998046874997 2.164501098632812 1.8186498046874997 Q 2.187376098632812 1.8253998046874997 2.2151260986328123 1.8381498046874998 L 2.235376098632812 1.7923998046874998 Q 2.2091260986328125 1.7788998046874998 2.175001098632812 1.7698998046874999 Q 2.140876098632812 1.7608998046874997 2.104876098632812 1.7608998046874997 Q 2.056126098632812 1.7608998046874997 2.0190010986328124 1.7777748046874997 Q 1.9818760986328123 1.7946498046874997 1.9620010986328122 1.8238998046874997 Q 1.9421260986328122 1.8531498046874997 1.9421260986328122 1.8891498046874997 Q 1.9421260986328122 1.9401498046874996 1.9747510986328123 1.9753998046874996 Q 2.0073760986328124 2.0106498046874997 2.0771260986328124 2.0406498046875 Q 2.1258760986328125 2.0616498046875 2.154001098632812 2.0777748046874995 Q 2.1821260986328124 2.0938998046874997 2.197126098632812 2.1137748046874996 Q 2.212126098632812 2.1336498046875 2.212126098632812 2.1598998046875 Q 2.212126098632812 2.1966498046874996 2.1802510986328123 2.2195248046874996 Q 2.1483760986328124 2.2423998046874996 2.0898760986328124 2.2423998046874996 Q 2.056876098632812 2.2423998046874996 2.022751098632812 2.2330248046874996 Q 1.9886260986328124 2.2236498046874997 1.9646260986328123 2.2116498046874997 L 1.9503760986328122 2.2581498046874997 Q 1.9706260986328124 2.2716498046874998 2.0141260986328122 2.2821498046874997 M 2.4450014648437497 1.7976498046874998 Q 2.39025146484375 1.8328998046874998 2.35912646484375 1.8936498046874997 Q 2.3280014648437497 1.9543998046874997 2.3280014648437497 2.0301498046874995 Q 2.3280014648437497 2.1058998046874997 2.35875146484375 2.1658998046874998 Q 2.38950146484375 2.2258998046875 2.4435014648437496 2.2596498046874998 Q 2.49750146484375 2.2933998046874997 2.56575146484375 2.2933998046874997 Q 2.63475146484375 2.2926498046874997 2.6902514648437497 2.2573998046874997 Q 2.74575146484375 2.2221498046874997 2.77687646484375 2.1610248046874996 Q 2.8080014648437497 2.0998998046875 2.8080014648437497 2.0241498046874997 Q 2.8080014648437497 1.9483998046874997 2.77725146484375 1.8883998046874997 Q 2.7465014648437496 1.8283998046874999 2.6917514648437497 1.7946498046874997 Q 2.63700146484375 1.7608998046874997 2.56875146484375 1.7608998046874997 Q 2.49975146484375 1.7623998046874998 2.4450014648437497 1.7976498046874998 M 2.41350146484375 1.9180248046874997 Q 2.43675146484375 1.8688998046874996 2.47762646484375 1.8407748046874999 Q 2.51850146484375 1.8126498046874997 2.57025146484375 1.8126498046874997 Q 2.6205014648437497 1.8126498046874997 2.65987646484375 1.8400248046874998 Q 2.69925146484375 1.8673998046874998 2.72175146484375 1.9157748046874996 Q 2.74425146484375 1.9641498046874997 2.74425146484375 2.0248998046874997 Q 2.74425146484375 2.0871498046875 2.72100146484375 2.1366498046875 Q 2.69775146484375 2.1861498046874996 2.6568764648437497 2.2138998046875 Q 2.61600146484375 2.2416498046875 2.5642514648437498 2.2416498046875 Q 2.5140014648437496 2.2416498046875 2.47462646484375 2.2142748046875 Q 2.4352514648437498 2.1868998046874997 2.41275146484375 2.1385248046874996 Q 2.39025146484375 2.0901498046874996 2.39025146484375 2.0293998046875 Q 2.39025146484375 1.9671498046874998 2.41350146484375 1.9180248046874997 M 3.206608154296875 2.2356498046874997 L 2.969608154296875 2.2356498046874997 L 2.969608154296875 1.7728998046874997 L 2.910358154296875 1.7728998046874997 L 2.910358154296875 2.2828998046874998 L 3.2126081542968747 2.2828998046874998 L 3.206608154296875 2.2356498046874997 M 3.28346923828125 1.7728998046874997 L 3.28346923828125 2.1021498046874996 Q 3.28346923828125 2.1568998046875 3.30709423828125 2.1996498046874997 Q 3.33071923828125 2.2423998046874996 3.37459423828125 2.2671498046874996 Q 3.41846923828125 2.2918998046874997 3.47696923828125 2.2918998046874997 Q 3.53546923828125 2.2918998046874997 3.5793442382812497 2.2675248046874996 Q 3.62321923828125 2.2431498046874996 3.64684423828125 2.1996498046874997 Q 3.67046923828125 2.1561498046875 3.67046923828125 2.1021498046874996 L 3.67046923828125 1.7728998046874997 L 3.61046923828125 1.7728998046874997 L 3.61046923828125 2.0953998046874998 Q 3.61046923828125 2.1606498046874996 3.57446923828125 2.2011498046874998 Q 3.53846923828125 2.2416498046875 3.47696923828125 2.2416498046875 Q 3.4162192382812497 2.2416498046875 3.37946923828125 2.2011498046874998 Q 3.34271923828125 2.1606498046874996 3.34271923828125 2.0953998046874998 L 3.34271923828125 1.7728998046874997 L 3.28346923828125 1.7728998046874997 M 4.141849365234375 1.7728998046874997 L 3.741349365234375 1.7728998046874997 L 3.741349365234375 1.8193998046874997 L 3.912349365234375 1.8193998046874997 L 3.912349365234375 2.2828998046874998 L 3.972349365234375 2.2828998046874998 L 3.972349365234375 1.8193998046874997 L 4.148599365234375 1.8193998046874997 L 4.141849365234375 1.7728998046874997 M 4.286215576171875 2.2828998046874998 L 4.286215576171875 1.7728998046874997 L 4.2269655761718745 1.7728998046874997 L 4.2269655761718745 2.2828998046874998 L 4.286215576171875 2.2828998046874998 M 4.505573364257812 1.7976498046874998 Q 4.450823364257812 1.8328998046874998 4.419698364257812 1.8936498046874997 Q 4.388573364257812 1.9543998046874997 4.388573364257812 2.0301498046874995 Q 4.388573364257812 2.1058998046874997 4.419323364257812 2.1658998046874998 Q 4.450073364257812 2.2258998046875 4.504073364257812 2.2596498046874998 Q 4.558073364257812 2.2933998046874997 4.6263233642578125 2.2933998046874997 Q 4.6953233642578125 2.2926498046874997 4.750823364257812 2.2573998046874997 Q 4.806323364257812 2.2221498046874997 4.837448364257812 2.1610248046874996 Q 4.868573364257812 2.0998998046875 4.868573364257812 2.0241498046874997 Q 4.868573364257812 1.9483998046874997 4.837823364257812 1.8883998046874997 Q 4.807073364257812 1.8283998046874999 4.752323364257812 1.7946498046874997 Q 4.697573364257812 1.7608998046874997 4.629323364257812 1.7608998046874997 Q 4.560323364257812 1.7623998046874998 4.505573364257812 1.7976498046874998 M 4.474073364257812 1.9180248046874997 Q 4.497323364257812 1.8688998046874996 4.538198364257812 1.8407748046874999 Q 4.5790733642578125 1.8126498046874997 4.630823364257812 1.8126498046874997 Q 4.681073364257812 1.8126498046874997 4.720448364257813 1.8400248046874998 Q 4.759823364257812 1.8673998046874998 4.782323364257812 1.9157748046874996 Q 4.804823364257812 1.9641498046874997 4.804823364257812 2.0248998046874997 Q 4.804823364257812 2.0871498046875 4.781573364257812 2.1366498046875 Q 4.758323364257812 2.1861498046874996 4.717448364257812 2.2138998046875 Q 4.676573364257812 2.2416498046875 4.6248233642578125 2.2416498046875 Q 4.574573364257812 2.2416498046875 4.535198364257812 2.2142748046875 Q 4.495823364257812 2.1868998046874997 4.473323364257812 2.1385248046874996 Q 4.450823364257812 2.0901498046874996 4.450823364257812 2.0293998046875 Q 4.450823364257812 1.9671498046874998 4.474073364257812 1.9180248046874997 M 5.030180053710938 2.2828998046874998 L 5.030180053710938 1.8823998046874997 L 5.049680053710937 1.9161498046874996 L 5.3091800537109375 2.2828998046874998 L 5.3571800537109375 2.2828998046874998 L 5.3571800537109375 1.7728998046874997 L 5.297180053710937 1.7728998046874997 L 5.297180053710937 2.1681498046875 L 5.266430053710937 2.1178998046874997 L 5.018180053710937 1.7728998046874997 L 4.970930053710937 1.7728998046874997 L 4.970930053710937 2.2828998046874998 L 5.030180053710938 2.2828998046874998 M 5.531564208984375 2.2821498046874997 Q 5.575064208984375 2.2926498046874997 5.608064208984374 2.2926498046874997 Q 5.663564208984375 2.2926498046874997 5.7044392089843745 2.2753998046875 Q 5.745314208984374 2.2581498046874997 5.766689208984374 2.2281498046875 Q 5.788064208984375 2.1981498046874997 5.788064208984375 2.1591498046875 Q 5.788064208984375 2.1231498046875 5.7730642089843744 2.0972748046875 Q 5.758064208984375 2.0713998046874997 5.729189208984375 2.0511498046875 Q 5.700314208984374 2.0308998046874995 5.653064208984374 2.0091498046874996 Q 5.600564208984375 1.9851498046874998 5.573564208984375 1.9693998046874999 Q 5.546564208984375 1.9536498046874997 5.531939208984375 1.9345248046874999 Q 5.5173142089843745 1.9153998046874998 5.5173142089843745 1.8883998046874997 Q 5.5173142089843745 1.8523998046874999 5.546939208984375 1.8321498046874998 Q 5.576564208984375 1.8118998046874997 5.626064208984375 1.8118998046874997 Q 5.659064208984375 1.8118998046874997 5.6819392089843745 1.8186498046874997 Q 5.7048142089843745 1.8253998046874997 5.732564208984375 1.8381498046874998 L 5.752814208984375 1.7923998046874998 Q 5.7265642089843745 1.7788998046874998 5.692439208984375 1.7698998046874999 Q 5.6583142089843745 1.7608998046874997 5.622314208984375 1.7608998046874997 Q 5.573564208984375 1.7608998046874997 5.536439208984374 1.7777748046874997 Q 5.499314208984375 1.7946498046874997 5.479439208984375 1.8238998046874997 Q 5.459564208984375 1.8531498046874997 5.459564208984375 1.8891498046874997 Q 5.459564208984375 1.9401498046874996 5.4921892089843745 1.9753998046874996 Q 5.524814208984375 2.0106498046874997 5.594564208984375 2.0406498046875 Q 5.643314208984375 2.0616498046875 5.671439208984375 2.0777748046874995 Q 5.699564208984374 2.0938998046874997 5.714564208984375 2.1137748046874996 Q 5.729564208984375 2.1336498046875 5.729564208984375 2.1598998046875 Q 5.729564208984375 2.1966498046874996 5.697689208984375 2.2195248046874996 Q 5.665814208984375 2.2423998046874996 5.607314208984374 2.2423998046874996 Q 5.574314208984375 2.2423998046874996 5.5401892089843745 2.2330248046874996 Q 5.506064208984375 2.2236498046874997 5.482064208984375 2.2116498046874997 L 5.467814208984374 2.2581498046874997 Q 5.488064208984374 2.2716498046874998 5.531564208984375 2.2821498046874997 M 5.850689575195312 2.2146498046875 Q 5.838689575195312 2.2266498046875 5.838689575195312 2.2423998046874996 Q 5.838689575195312 2.2573998046874997 5.849189575195312 2.2693998046874997 Q 5.859689575195312 2.2813998046874997 5.873189575195312 2.2821498046874997 Q 5.871689575195313 2.3016498046874996 5.860439575195312 2.3158998046874997 Q 5.849189575195312 2.3301498046874998 5.828189575195312 2.3451498046875 L 5.8439395751953125 2.3728998046874996 Q 5.876189575195312 2.3563998046875 5.898314575195312 2.3207748046875 Q 5.920439575195312 2.2851498046875 5.920439575195312 2.2491498046875 Q 5.920439575195312 2.2281498046875 5.908814575195312 2.2153998046875 Q 5.897189575195312 2.2026498046875 5.879189575195312 2.2026498046875 Q 5.862689575195312 2.2026498046875 5.850689575195312 2.2146498046875 M 6.355398193359375 2.2828998046874998 L 6.356148193359375 2.0751498046875 L 6.5346481933593745 1.7728998046874997 L 6.470898193359375 1.7728998046874997 L 6.326148193359375 2.0196498046875 L 6.1828981933593745 1.7608998046874997 L 6.127398193359375 1.7848998046874998 L 6.296148193359374 2.0781498046874995 L 6.296148193359374 2.2828998046874998 L 6.355398193359375 2.2828998046874998 M 6.692514404296875 1.7976498046874998 Q 6.637764404296875 1.8328998046874998 6.606639404296875 1.8936498046874997 Q 6.575514404296875 1.9543998046874997 6.575514404296875 2.0301498046874995 Q 6.575514404296875 2.1058998046874997 6.606264404296875 2.1658998046874998 Q 6.637014404296875 2.2258998046875 6.691014404296875 2.2596498046874998 Q 6.7450144042968745 2.2933998046874997 6.813264404296875 2.2933998046874997 Q 6.882264404296875 2.2926498046874997 6.937764404296875 2.2573998046874997 Q 6.993264404296875 2.2221498046874997 7.024389404296874 2.1610248046874996 Q 7.055514404296875 2.0998998046875 7.055514404296875 2.0241498046874997 Q 7.055514404296875 1.9483998046874997 7.024764404296874 1.8883998046874997 Q 6.994014404296875 1.8283998046874999 6.939264404296875 1.7946498046874997 Q 6.8845144042968744 1.7608998046874997 6.8162644042968745 1.7608998046874997 Q 6.747264404296875 1.7623998046874998 6.692514404296875 1.7976498046874998 M 6.661014404296875 1.9180248046874997 Q 6.684264404296875 1.8688998046874996 6.725139404296875 1.8407748046874999 Q 6.766014404296875 1.8126498046874997 6.817764404296875 1.8126498046874997 Q 6.868014404296875 1.8126498046874997 6.907389404296875 1.8400248046874998 Q 6.946764404296875 1.8673998046874998 6.969264404296875 1.9157748046874996 Q 6.991764404296875 1.9641498046874997 6.991764404296875 2.0248998046874997 Q 6.991764404296875 2.0871498046875 6.968514404296875 2.1366498046875 Q 6.945264404296875 2.1861498046874996 6.904389404296875 2.2138998046875 Q 6.8635144042968745 2.2416498046875 6.811764404296875 2.2416498046875 Q 6.761514404296875 2.2416498046875 6.7221394042968745 2.2142748046875 Q 6.682764404296875 2.1868998046874997 6.660264404296875 2.1385248046874996 Q 6.637764404296875 2.0901498046874996 6.637764404296875 2.0293998046875 Q 6.637764404296875 1.9671498046874998 6.661014404296875 1.9180248046874997 M 7.15037109375 1.7728998046874997 L 7.15037109375 2.1021498046874996 Q 7.15037109375 2.1568998046875 7.17399609375 2.1996498046874997 Q 7.19762109375 2.2423998046874996 7.2414960937499995 2.2671498046874996 Q 7.28537109375 2.2918998046874997 7.34387109375 2.2918998046874997 Q 7.40237109375 2.2918998046874997 7.44624609375 2.2675248046874996 Q 7.49012109375 2.2431498046874996 7.51374609375 2.1996498046874997 Q 7.53737109375 2.1561498046875 7.53737109375 2.1021498046874996 L 7.53737109375 1.7728998046874997 L 7.4773710937499995 1.7728998046874997 L 7.4773710937499995 2.0953998046874998 Q 7.4773710937499995 2.1606498046874996 7.44137109375 2.2011498046874998 Q 7.40537109375 2.2416498046875 7.34387109375 2.2416498046875 Q 7.28312109375 2.2416498046875 7.24637109375 2.2011498046874998 Q 7.20962109375 2.1606498046874996 7.20962109375 2.0953998046874998 L 7.20962109375 1.7728998046874997 L 7.15037109375 1.7728998046874997 M 7.670501220703125 2.2828998046874998 L 7.729751220703125 2.2828998046874998 L 7.729751220703125 2.0736498046875 L 7.8017512207031245 2.0736498046875 Q 7.828001220703125 2.0736498046875 7.855001220703125 2.0706498046874997 L 7.972001220703125 2.2828998046874998 L 8.037251220703125 2.2828998046874998 L 7.907501220703125 2.0548998046874996 Q 7.948751220703125 2.0376498046875 7.972751220703125 2.0042748046875 Q 7.996751220703125 1.9708998046874997 7.997501220703125 1.9213998046874998 Q 7.997501220703125 1.8448998046874998 7.946501220703125 1.8088998046874998 Q 7.8955012207031245 1.7728998046874997 7.809251220703125 1.7728998046874997 L 7.670501220703125 1.7728998046874997 L 7.670501220703125 2.2828998046874998 M 7.903751220703125 1.8452748046874998 Q 7.936751220703125 1.8673998046874998 7.936751220703125 1.9236498046874997 Q 7.936001220703125 1.9776498046874997 7.899626220703125 2.0012748046874997 Q 7.863251220703125 2.0248998046874997 7.804001220703125 2.0248998046874997 L 7.729751220703125 2.0248998046874997 L 7.729751220703125 1.8231498046874997 L 7.810001220703125 1.8231498046874997 Q 7.870751220703125 1.8231498046874997 7.903751220703125 1.8452748046874998 M 8.856964599609373 1.7728998046874997 L 8.717464599609373 2.2828998046874998 L 8.660464599609375 2.2828998046874998 L 8.543464599609374 1.8613998046874998 L 8.433214599609373 2.2828998046874998 L 8.376214599609375 2.2828998046874998 L 8.229214599609374 1.7766498046874997 L 8.287714599609375 1.7676498046874998 L 8.405464599609374 2.2018998046875 L 8.515714599609375 1.7728998046874997 L 8.573464599609373 1.7728998046874997 L 8.688964599609374 2.2018998046875 L 8.799964599609375 1.7728998046874997 L 8.856964599609373 1.7728998046874997 M 9.062085571289062 1.7728998046874997 L 8.873085571289062 2.2828998046874998 L 8.930835571289062 2.2828998046874998 L 8.98408557128906 2.1381498046874996 L 9.199335571289062 2.1381498046874996 L 9.256335571289062 2.2881498046875 L 9.314835571289061 2.2783998046874996 L 9.119085571289062 1.7728998046874997 L 9.062085571289062 1.7728998046874997 M 9.182085571289061 2.0901498046874996 L 9.000585571289061 2.0901498046874996 L 9.089835571289061 1.8508998046874998 L 9.182085571289061 2.0901498046874996 M 9.558967163085937 2.2828998046874998 L 9.559717163085937 2.0751498046875 L 9.738217163085936 1.7728998046874997 L 9.674467163085938 1.7728998046874997 L 9.529717163085937 2.0196498046875 L 9.386467163085937 1.7608998046874997 L 9.330967163085937 1.7848998046874998 L 9.499717163085936 2.0781498046874995 L 9.499717163085936 2.2828998046874998 L 9.558967163085937 2.2828998046874998" fill="#f9f7e9" fill-rule="nonzero"></path></g></g><defs><clipPath id="SvgjsClipPath120849"><path d=" M 10.145708374023437 -1.2528756122984104 h 5.445567987709024 v 4.7886510292843205 h -5.445567987709024 Z"></path></clipPath><clipPath id="b697c5cc7-c4c8-4719-b031-b2994a157d26b6577a89-c8ec-4db7-bf30-dc5b25fe1ae3"><path d=" M 9.243139930609573 -2.0960679529225352 L 16.688858519648992 -2.0960679529225352 L 16.688858519648992 3.5546323140931912 L 9.243139930609573 3.5546323140931912 Z"></path></clipPath></defs></svg>